# xmcd CD Database Entry
#
# Track frame offsets:
# 150
# 8045
# 15285
# 31140
# 43665
# 62398
# 69218
# 84995
# 99458
# 107630
# 112520
# 125753
# 143425
# 150803
# 161510
# 170860
# 186990
# 200993
# 214528
# 220760
# 239963
# 257163
# 278075
# 298650
#
# Disc length: 4182 seconds
#
# Revision: 3
# Processed by: cddbd v1.4PL0 Copyright (c) Steve Scherf et al.
# Submitted via: tcd 2.0b
#
DISCID=45105418
DTITLE=Franz Schubert - Lieder
DYEAR=1900
DGENRE=
TTITLE0=Seligkeit
TTITLE1=Geheimes
TTITLE2=Im Fruhling
TTITLE3=Fruhlingsglaube
TTITLE4=Frulingstraum
TTITLE5=Liebe schwarmt auf allen Wegen
TTITLE6=Nachtviolen
TTITLE7=Auf dem Wasser zu singen
TTITLE8=Der Jungling an der Quelle
TTITLE9=Die Vogel
TTITLE10=Lied der Mignon
TTITLE11=Erlafsee
TTITLE12=Lachen und Weinen
TTITLE13=Auflosung
TTITLE14=Wohin?
TTITLE15=Der Neugierige
TTITLE16=Trockne Blumen
TTITLE17=Standchen
TTITLE18=Rastlose Liebe
TTITLE19=Nacht und Traume
TTITLE20=Gretchen am Spinnrade
TTITLE21=Mignon und der Harfner
TTITLE22=Licht und Liebe
TTITLE23=Ich schleiche bang und still
EXTD=
EXTT0=
EXTT1=
EXTT2=
EXTT3=
EXTT4=
EXTT5=
EXTT6=
EXTT7=
EXTT8=
EXTT9=
EXTT10=
EXTT11=
EXTT12=
EXTT13=
EXTT14=
EXTT15=
EXTT16=
EXTT17=
EXTT18=
EXTT19=
EXTT20=
EXTT21=
EXTT22=
EXTT23=
PLAYORDER=
